<?xml version="1.0" encoding="utf-8"?>
<!-- Generator: Adobe Illustrator 26.0.1, SVG Export Plug-In . SVG Version: 6.00 Build 0)  -->
<svg version="1.1" id="Calque_1" xmlns="http://www.w3.org/2000/svg" xmlns:xlink="http://www.w3.org/1999/xlink" x="0px" y="0px"
	 viewBox="0 0 50 50" style="enable-background:new 0 0 50 50;" xml:space="preserve">
<style type="text/css">
	.st0{fill:#FFFFFF;}
</style>
<g>
	<path class="st0" d="M39.8,18.5c0-0.8-0.1-1.5-0.3-2.2c-0.8-2.9-2.5-4.8-5.4-5.7c-1.3-0.4-2.7-0.5-4.1-0.5c-3.6-0.1-7.2-0.1-10.8,0
		c-1.1,0-2.1,0.1-3.1,0.4c-2.3,0.7-4,2.1-5,4.2c-0.6,1.2-0.8,2.5-0.9,3.7c0,0.6-0.1,1.3-0.1,2c0,2,0,4,0,6v0.1c0,1.4,0,2.8,0.1,4.3
		c0,0.6,0.1,1.2,0.2,1.9c0.1,1,0.4,1.9,0.9,2.8c0.4,0.9,1.1,1.7,1.9,2.3c0.5,0.4,1.1,0.8,1.7,1.1c0.5,0.3,1.1,0.4,1.7,0.6
		c0.6,0.1,1.2,0.3,1.9,0.3c0.5,0,0.9,0,1.4,0.1c2.5,0,5,0,7.5,0c0.8,0,1.5,0,2.3,0c0.4,0,0.8,0,1.2-0.1c0.6-0.1,1.2-0.1,1.8-0.1
		c1-0.1,2-0.4,2.9-0.8c0.8-0.4,1.5-0.9,2.1-1.5c1.4-1.5,2.1-3.3,2.3-5.3c0.1-1.2,0.2-2.5,0.2-3.8C39.9,25.1,40,21.8,39.8,18.5z
		 M37.2,28.8c0,0.6,0,1.2-0.1,1.9c-0.1,0.9-0.1,1.8-0.4,2.6c-0.2,0.6-0.4,1.1-0.8,1.6c-0.1,0.1-0.1,0.2-0.2,0.2
		c-0.3,0.4-0.7,0.7-1.1,1c-1.1,0.7-2.4,0.9-3.7,1c-3.3,0.2-6.5,0.1-9.8,0.1c-1.2,0-2.4,0-3.6-0.2c-1.5-0.2-2.8-0.9-3.7-2.2
		c-0.6-0.9-0.9-1.9-1-2.9c-0.2-2-0.2-3.9-0.2-5.9c0-0.2,0-0.3,0-0.5c0-1.7,0-3.5,0-5.2c0-1.1,0-2.1,0.3-3.2c0.4-1.7,1.3-3,2.9-3.7
		c0.8-0.4,1.6-0.5,2.5-0.6c3-0.2,6-0.1,8.9-0.1c1.4,0,2.7,0,4.1,0.1c1.1,0.1,2.1,0.3,3,0.8c1.4,0.8,2.1,2.1,2.4,3.6
		c0.2,0.8,0.2,1.7,0.2,2.5C37.3,22.8,37.2,25.8,37.2,28.8z"/>
	<path class="st0" d="M25.6,17.4c-2.6-0.2-4.8,0.8-6.5,2.8c-0.6,0.7-1,1.5-1.3,2.4c-0.2,0.6-0.3,1.3-0.4,1.9c0,0.1,0,0.2,0,0.2
		c-0.1,1.9,0.5,3.6,1.7,5.1c0.6,0.7,1.2,1.3,2,1.8c1.6,0.9,3.2,1.2,5,1c1-0.1,2-0.5,2.9-1c1-0.6,1.7-1.3,2.4-2.2c0,0,0,0,0-0.1
		c1.2-1.7,1.6-3.6,1.2-5.7C31.9,20.2,29,17.6,25.6,17.4z M29.9,25.6c-0.1,0.7-0.3,1.3-0.6,1.8c-0.6,1-1.5,1.8-2.6,2.2
		c-2.4,1-5.6-0.2-6.5-3.3c-0.1-0.2-0.1-0.4-0.1-0.5c-0.4-2.5,1.2-5,3.6-5.6c0.4-0.1,0.9-0.2,1.4-0.2c1.1,0.1,2.1,0.3,2.9,1
		C29.5,22.2,30.1,23.8,29.9,25.6z"/>
	<path class="st0" d="M32.9,15.3c-1,0-1.8,0.8-1.8,1.8c0,1.1,0.8,1.9,1.9,1.8c0.8-0.1,1.6-0.7,1.6-1.8
		C34.7,16.1,33.9,15.3,32.9,15.3z"/>
</g>
</svg>
