<?xml version="1.0" encoding="utf-8"?>
<!-- Generator: Adobe Illustrator 26.0.1, SVG Export Plug-In . SVG Version: 6.00 Build 0)  -->
<svg version="1.1" id="Calque_1" xmlns="http://www.w3.org/2000/svg" xmlns:xlink="http://www.w3.org/1999/xlink" x="0px" y="0px"
	 viewBox="0 0 50 50" style="enable-background:new 0 0 50 50;" xml:space="preserve">
<style type="text/css">
	.st0{fill:#FFFFFF;}
</style>
<path class="st0" d="M25.4,9.8c-7.8,0-14.2,6.3-14.2,14.2s6.3,14.2,14.2,14.2S39.6,31.8,39.6,24S33.2,9.8,25.4,9.8z M31.8,30.9
	c-0.3,0.5-0.8,0.5-1.2,0.4c-3.3-2-7.5-2.5-12.3-1.4c-0.5,0.2-1-0.2-1.1-0.6c0-0.1,0-0.2,0-0.3l0,0c0-0.1,0-0.1,0-0.1
	c0-0.4,0.3-0.7,0.6-0.8c1.9-0.4,3.7-0.6,5.4-0.6c3.2,0,5.9,0.7,8.4,2.3c0.3,0.2,0.4,0.5,0.4,0.7C32,30.6,31.9,30.8,31.8,30.9z
	 M33.9,26.3L33.9,26.3c0,0.2,0,0.5-0.2,0.6c-0.4,0.5-1.1,0.7-1.5,0.4c-3.8-2.4-9.6-3.1-14.1-1.7c-0.5,0.3-1.2-0.2-1.4-0.7
	c-0.1-0.1-0.1-0.3-0.1-0.4c0,0,0-0.1,0-0.2c0-0.4,0.3-0.8,0.7-1c1.8-0.5,3.7-0.8,5.6-0.8c3.7,0,7.4,1,10.2,2.7
	C33.5,25.6,33.7,26.1,33.9,26.3c0-0.1,0-0.1,0-0.2C33.9,26.3,33.9,26.3,33.9,26.3z M33.7,23c-4.6-2.8-12.1-3.1-16.4-1.7
	c-0.6,0.3-1.4-0.2-1.6-0.9c0-0.3,0-0.4,0-0.6c0-0.5,0.4-1,0.9-1.1c1.9-0.5,4.2-0.9,6.8-0.9c4.1,0,8.6,0.9,11.7,2.8
	c0.4,0.3,0.6,0.7,0.6,1.1s0,0.5-0.2,0.8C35.1,23.1,34.3,23.4,33.7,23z"/>
</svg>
