<?xml version="1.0" encoding="utf-8"?>
<!-- Generator: Adobe Illustrator 25.4.1, SVG Export Plug-In . SVG Version: 6.00 Build 0)  -->
<svg version="1.1" id="Calque_1" xmlns="http://www.w3.org/2000/svg" xmlns:xlink="http://www.w3.org/1999/xlink" x="0px" y="0px"
	 viewBox="0 0 50 50" style="enable-background:new 0 0 50 50;" xml:space="preserve">
<style type="text/css">
	.st0{fill:#FFFFFF;}
</style>
<path class="st0" d="M32.2,16.8C32.2,16.8,32.2,16.8,32.2,16.8C32.2,16.8,32.2,16.8,32.2,16.8c-1.5-0.9-2.5-2.5-2.8-4.3
	c-0.1-0.3-0.1-0.7-0.1-1.1h-4.8V30c-0.1,2.1-1.8,3.7-3.9,3.7c-0.7,0-1.3-0.2-1.8-0.5c0,0,0,0,0,0c0,0,0,0,0,0
	c-1.2-0.6-2.1-1.9-2.1-3.4c0-2.1,1.8-3.9,3.9-3.9c0.4,0,0.7,0.1,1.1,0.2v-3.6c0,0,0,0,0,0c0,0,0,0,0,0v-1.1
	c-0.4-0.1-0.7-0.1-1.1-0.1c-4.8,0-8.6,3.8-8.6,8.6c0,2.8,1.4,5.3,3.4,6.8c0.1,0.1,0.2,0.2,0.2,0.3c1.4,0.9,3.1,1.6,5,1.6
	c4.8-0.1,8.6-4,8.6-8.7v-9.5c1.9,1.3,4.1,2.1,6.4,2.1v-3.6c0,0,0,0,0,0h0v-1.1C34.4,17.8,33.2,17.4,32.2,16.8z"/>
</svg>
