<?xml version="1.0" encoding="utf-8"?>
<!-- Generator: Adobe Illustrator 26.0.1, SVG Export Plug-In . SVG Version: 6.00 Build 0)  -->
<svg version="1.1" id="Calque_1" xmlns="http://www.w3.org/2000/svg" xmlns:xlink="http://www.w3.org/1999/xlink" x="0px" y="0px"
	 viewBox="0 0 50 50" style="enable-background:new 0 0 50 50;" xml:space="preserve">
<style type="text/css">
	.st0{fill:#FFFFFF;}
</style>
<path class="st0" d="M39.4,14.3c-1,0.6-2.2,1-3.4,1.3c-1-1-2.4-1.8-4-1.8c-3,0-5.5,2.5-5.5,5.7c0,0.4,0,0.9,0.1,1.3
	c-4.6-0.3-8.7-2.5-11.4-6c-0.4,0.9-0.7,1.8-0.7,2.8c0,1.9,1,3.7,2.4,4.8c-0.9,0-1.8-0.3-2.5-0.7l0,0c0,2.7,1.9,5.1,4.5,5.5
	c-0.4,0.1-0.9,0.1-1.5,0.1c-0.3,0-0.7,0-1-0.1c0.7,2.2,2.7,3.9,5.1,3.9c-1.9,1.5-4.3,2.4-6.9,2.4c-0.4,0-0.9,0-1.3-0.1
	c2.4,1.6,5.4,2.5,8.5,2.5c10.2,0,15.7-8.7,15.7-16.2c0-0.3,0-0.4,0-0.7c1-0.7,1.9-1.8,2.7-3c-1,0.4-2.1,0.7-3.1,0.9
	C38.2,16.7,39.1,15.6,39.4,14.3z"/>
</svg>
