<?xml version="1.0" encoding="utf-8"?>
<!-- Generator: Adobe Illustrator 26.0.1, SVG Export Plug-In . SVG Version: 6.00 Build 0)  -->
<svg version="1.1" id="Calque_1" xmlns="http://www.w3.org/2000/svg" xmlns:xlink="http://www.w3.org/1999/xlink" x="0px" y="0px"
	 viewBox="0 0 50 50" style="enable-background:new 0 0 50 50;" xml:space="preserve">
<style type="text/css">
	.st0{fill:#FFFFFF;}
</style>
<g>
	<path class="st0" d="M40.5,17.2c-0.4-1.4-1.5-2.5-2.9-2.9C35.1,13.7,25,13.7,25,13.7s-10.1,0-12.6,0.7c-1.4,0.4-2.5,1.5-2.9,2.9
		c-0.8,4.5-1.1,11.3,0,15.6c0.4,1.4,1.5,2.5,2.9,2.9c2.5,0.7,12.6,0.7,12.6,0.7s10.1,0,12.6-0.7c1.4-0.4,2.5-1.5,2.9-2.9
		C41.3,28.3,41.6,21.5,40.5,17.2z M21.8,29.9v-9.7l8.4,4.9L21.8,29.9z"/>
</g>
</svg>
